<svg xmlns="http://www.w3.org/2000/svg" viewBox="110 334 1032 607" xmlns:c2pa="http://c2pa.org/manifest"><metadata><c2pa:manifest>AAAWgmp1bWIAAAAeanVtZGMycGEAEQAQgAAAqgA4m3EDYzJwYQAAABZcanVtYgAAAEdqdW1kYzJtYQARABCAAACqADibcQN1cm46YzJwYTpjNzdkYTAzYS00ZThlLTRmNjEtOGExZi1hZGU1ZGI3YjI4YTQAAAADl2p1bWIAAAApanVtZGMyYXMAEQAQgAAAqgA4m3EDYzJwYS5hc3NlcnRpb25zAAAAALxqdW1iAAAARGp1bWRjYm9yABEAEIAAAKoAOJtxE2MycGEuaW5ncmVkaWVudC52MwAAAAAYYzJzaMHbE/wO6BW8oq6DBDqU33wAAABwY2JvcqNpZGM6Zm9ybWF0bWltYWdlL3N2Zyt4bWxqaW5zdGFuY2VJRHgseG1wOmlpZDoyM2RlY2E3ZS04NDgxLTQ5NGUtYTczOC05YWU0ZDc0Mjk1MjlscmVsYXRpb25zaGlwaHBhcmVudE9mAAAB4mp1bWIAAABBanVtZGNib3IAEQAQgAAAqgA4m3ETYzJwYS5hY3Rpb25zLnYyAAAAABhjMnNoIBAkXAuGcVyhER552SUSRgAAAZljYm9yomdhY3Rpb25zgqJmYWN0aW9ua2MycGEub3BlbmVkanBhcmFtZXRlcnOha2luZ3JlZGllbnRzgaJjdXJseC1zZWxmI2p1bWJmPWMycGEuYXNzZXJ0aW9ucy9jMnBhLmluZ3JlZGllbnQudjNkaGFzaFggmUJSRXcVeja4Vey2zNqIQDZU0r4ThgufFXVApM+mDH+kZmFjdGlvbngdY29tLmFudGhyb3BpYy5jbGF1ZGUucHJvdmlkZWRqcGFyYW1ldGVyc6F4H2NvbS5hbnRocm9waWMub3JpZ2luLWNvbmZpZGVuY2VndW5rbm93bmtkZXNjcmlwdGlvbnhmQ2xhdWRlIHByb3ZpZGVkIHRoaXMgZmlsZSBhdCB0aGUgcmVxdWVzdCBvZiBhIHVzZXIgYW5kIG1heSBoYXZlIGNyZWF0ZWQgb3IgbW9kaWZpZWQgdGhlIGZpbGUgY29udGVudHMubXNvZnR3YXJlQWdlbnShZG5hbWVmQ2xhdWRlcmFsbEFjdGlvbnNJbmNsdWRlZPUAAADIanVtYgAAAEBqdW1kY2JvcgARABCAAACqADibcRNjMnBhLmhhc2guZGF0YQAAAAAYYzJzaCrhuIKYc/WyTVhCuKeIqR4AAACAY2JvcqVjYWxnZnNoYTI1NmNwYWRNAAAAAAAAAAAAAAAAAGRoYXNoWCA061G6nEaj6/LE1Aoqv1W5GCg7lnph4mfUz2yGSr6uLmRuYW1lbmp1bWJmIG1hbmlmZXN0amV4Y2x1c2lvbnOBomVzdGFydBiCZmxlbmd0aBkeBAAAAj5qdW1iAAAAJ2p1bWRjMmNsABEAEIAAAKoAOJtxA2MycGEuY2xhaW0udjIAAAACD2Nib3KlY2FsZ2ZzaGEyNTZpc2lnbmF0dXJleE1zZWxmI2p1bWJmPS9jMnBhL3VybjpjMnBhOmM3N2RhMDNhLTRlOGUtNGY2MS04YTFmLWFkZTVkYjdiMjhhNC9jMnBhLnNpZ25hdHVyZWppbnN0YW5jZUlEeCx4bXA6aWlkOjE5NDdkMjkxLThmMDgtNGQ3YS05ZDc4LTM1YmU5NmFlYzNmMnJjcmVhdGVkX2Fzc2VydGlvbnODomN1cmx4LXNlbGYjanVtYmY9YzJwYS5hc3NlcnRpb25zL2MycGEuaW5ncmVkaWVudC52M2RoYXNoWCCZQlJFdxV6NrhV7LbM2ohANlTSvhOGC58VdUCkz6YMf6JjdXJseCpzZWxmI2p1bWJmPWMycGEuYXNzZXJ0aW9ucy9jMnBhLmFjdGlvbnMudjJkaGFzaFggKZWK6hVw4jebif1y0GcDvnBWKt9KhrvE9QrjceqbfeOiY3VybHgpc2VsZiNqdW1iZj1jMnBhLmFzc2VydGlvbnMvYzJwYS5oYXNoLmRhdGFkaGFzaFggZ8N0qKz2LHi2l+bijciK+B0Gn8HHvsXwmjxfqHjcGsd0Y2xhaW1fZ2VuZXJhdG9yX2luZm+jZG5hbWVvQW50aHJvcGljIEZpbGVzZ3ZlcnNpb25lMS4wLjBrc3BlY1ZlcnNpb25lMi40LjAAABA4anVtYgAAAChqdW1kYzJjcwARABCAAACqADibcQNjMnBhLnNpZ25hdHVyZQAAABAIY2JvctKEWQISogEmGCFZAgowggIGMIIBjaADAgECAhRA5aAK7sI50L64g/oGQgU9Z1UTADAKBggqhkjOPQQDAzBJMRcwFQYDVQQKEw5BbnRocm9waWMsIFBCQzEuMCwGA1UEAxMlQW50aHJvcGljIENvbnRlbnQgQ3JlZGVudGlhbHMgUm9vdCBDQTAeFw0yNjA4MDcxODQzNTZaFw0yODA4MDYxOTQzNTZaMEQxFzAVBgNVBAoTDkFudGhyb3BpYywgUEJDMSkwJwYDVQQDEyBBbnRocm9waWMgQ2xhdWRlIENvbnRlbnQgU2lnbmluZzBZMBMGByqGSM49AgEGCCqGSM49AwEHA0IABJh6CmvLUBgFFNU0vUKlOVtE6djd17L5SuwX0LemFisBM3dkd/3cyjxFA3Qo5S46fX0/ihY0VZ7mfb9KF703t5OjWDBWMA4GA1UdDwEB/wQEAwIHgDAVBgNVHSUEDjAMBgorBgEEAYPoXgIBMAwGA1UdEwEB/wQCMAAwHwYDVR0jBBgwFoAUzlHiBIFOZFsj+OPEz5o+nMHXXMIwCgYIKoZIzj0EAwMDZwAwZAIwMXMdFJ4BetLLVY7ORuE9noqbbAZOZn/aArXyTwFAZfKrPzxF2vPoJNf1+UCdg1XGAjBwX1zd9WGqYkqmL5SFqw1QySjr1zJfpJM9+1rdDwSPLMOPOjKuiXjoU/pUUeG9RwmhY3BhZFkNngAAAAAAAAAAAAAAAAAAAAAAAAAAAAAAAAAAAAAAAAAAAAAAAAAAAAAAAAAAAAAAAAAAAAAAAAAAAAAAAAAAAAAAAAAAAAAAAAAAAAAAAAAAAAAAAAAAAAAAAAAAAAAAAAAAAAAAAAAAAAAAAAAAAAAAAAAAAAAAAAAAAAAAAAAAAAAAAAAAAAAAAAAAAAAAAAAAAAAAAAAAAAAAAAAAAAAAAAAAAAAAAAAAAAAAAAAAAAAAAAAAAAAAAAAAAAAAAAAAAAAAAAAAAAAAAAAAAAAAAAAAAAAAAAAAAAAAAAAAAAAAAAAAAAAAAAAAAAAAAAAAAAAAAAAAAAAAAAAAAAAAAAAAAAAAAAAAAAAAAAAAAAAAAAAAAAAAAAAAAAAAAAAAAAAAAAAAAAAAAAAAAAAAAAAAAAAAAAAAAAAAAAAAAAAAAAAAAAAAAAAAAAAAAAAAAAAAAAAAAAAAAAAAAAAAAAAAAAAAAAAAAAAAAAAAAAAAAAAAAAAAAAAAAAAAAAAAAAAAAAAAAAAAAAAAAAAAAAAAAAAAAAAAAAAAAAAAAAAAAAAAAAAAAAAAAAAAAAAAAAAAAAAAAAAAAAAAAAAAAAAAAAAAAAAAAAAAAAAAAAAAAAAAAAAAAAAAAAAAAAAAAAAAAAAAAAAAAAAAAAAAAAAAAAAAAAAAAAAAAAAAAAAAAAAAAAAAAAAAAAAAAAAAAAAAAAAAAAAAAAAAAAAAAAAAAAAAAAAAAAAAAAAAAAAAAAAAAAAAAAAAAAAAAAAAAAAAAAAAAAAAAAAAAAAAAAAAAAAAAAAAAAAAAAAAAAAAAAAAAAAAAAAAAAAAAAAAAAAAAAAAAAAAAAAAAAAAAAAAAAAAAAAAAAAAAAAAAAAAAAAAAAAAAAAAAAAAAAAAAAAAAAAAAAAAAAAAAAAAAAAAAAAAAAAAAAAAAAAAAAAAAAAAAAAAAAAAAAAAAAAAAAAAAAAAAAAAAAAAAAAAAAAAAAAAAAAAAAAAAAAAAAAAAAAAAAAAAAAAAAAAAAAAAAAAAAAAAAAAAAAAAAAAAAAAAAAAAAAAAAAAAAAAAAAAAAAAAAAAAAAAAAAAAAAAAAAAAAAAAAAAAAAAAAAAAAAAAAAAAAAAAAAAAAAAAAAAAAAAAAAAAAAAAAAAAAAAAAAAAAAAAAAAAAAAAAAAAAAAAAAAAAAAAAAAAAAAAAAAAAAAAAAAAAAAAAAAAAAAAAAAAAAAAAAAAAAAAAAAAAAAAAAAAAAAAAAAAAAAAAAAAAAAAAAAAAAAAAAAAAAAAAAAAAAAAAAAAAAAAAAAAAAAAAAAAAAAAAAAAAAAAAAAAAAAAAAAAAAAAAAAAAAAAAAAAAAAAAAAAAAAAAAAAAAAAAAAAAAAAAAAAAAAAAAAAAAAAAAAAAAAAAAAAAAAAAAAAAAAAAAAAAAAAAAAAAAAAAAAAAAAAAAAAAAAAAAAAAAAAAAAAAAAAAAAAAAAAAAAAAAAAAAAAAAAAAAAAAAAAAAAAAAAAAAAAAAAAAAAAAAAAAAAAAAAAAAAAAAAAAAAAAAAAAAAAAAAAAAAAAAAAAAAAAAAAAAAAAAAAAAAAAAAAAAAAAAAAAAAAAAAAAAAAAAAAAAAAAAAAAAAAAAAAAAAAAAAAAAAAAAAAAAAAAAAAAAAAAAAAAAAAAAAAAAAAAAAAAAAAAAAAAAAAAAAAAAAAAAAAAAAAAAAAAAAAAAAAAAAAAAAAAAAAAAAAAAAAAAAAAAAAAAAAAAAAAAAAAAAAAAAAAAAAAAAAAAAAAAAAAAAAAAAAAAAAAAAAAAAAAAAAAAAAAAAAAAAAAAAAAAAAAAAAAAAAAAAAAAAAAAAAAAAAAAAAAAAAAAAAAAAAAAAAAAAAAAAAAAAAAAAAAAAAAAAAAAAAAAAAAAAAAAAAAAAAAAAAAAAAAAAAAAAAAAAAAAAAAAAAAAAAAAAAAAAAAAAAAAAAAAAAAAAAAAAAAAAAAAAAAAAAAAAAAAAAAAAAAAAAAAAAAAAAAAAAAAAAAAAAAAAAAAAAAAAAAAAAAAAAAAAAAAAAAAAAAAAAAAAAAAAAAAAAAAAAAAAAAAAAAAAAAAAAAAAAAAAAAAAAAAAAAAAAAAAAAAAAAAAAAAAAAAAAAAAAAAAAAAAAAAAAAAAAAAAAAAAAAAAAAAAAAAAAAAAAAAAAAAAAAAAAAAAAAAAAAAAAAAAAAAAAAAAAAAAAAAAAAAAAAAAAAAAAAAAAAAAAAAAAAAAAAAAAAAAAAAAAAAAAAAAAAAAAAAAAAAAAAAAAAAAAAAAAAAAAAAAAAAAAAAAAAAAAAAAAAAAAAAAAAAAAAAAAAAAAAAAAAAAAAAAAAAAAAAAAAAAAAAAAAAAAAAAAAAAAAAAAAAAAAAAAAAAAAAAAAAAAAAAAAAAAAAAAAAAAAAAAAAAAAAAAAAAAAAAAAAAAAAAAAAAAAAAAAAAAAAAAAAAAAAAAAAAAAAAAAAAAAAAAAAAAAAAAAAAAAAAAAAAAAAAAAAAAAAAAAAAAAAAAAAAAAAAAAAAAAAAAAAAAAAAAAAAAAAAAAAAAAAAAAAAAAAAAAAAAAAAAAAAAAAAAAAAAAAAAAAAAAAAAAAAAAAAAAAAAAAAAAAAAAAAAAAAAAAAAAAAAAAAAAAAAAAAAAAAAAAAAAAAAAAAAAAAAAAAAAAAAAAAAAAAAAAAAAAAAAAAAAAAAAAAAAAAAAAAAAAAAAAAAAAAAAAAAAAAAAAAAAAAAAAAAAAAAAAAAAAAAAAAAAAAAAAAAAAAAAAAAAAAAAAAAAAAAAAAAAAAAAAAAAAAAAAAAAAAAAAAAAAAAAAAAAAAAAAAAAAAAAAAAAAAAAAAAAAAAAAAAAAAAAAAAAAAAAAAAAAAAAAAAAAAAAAAAAAAAAAAAAAAAAAAAAAAAAAAAAAAAAAAAAAAAAAAAAAAAAAAAAAAAAAAAAAAAAAAAAAAAAAAAAAAAAAAAAAAAAAAAAAAAAAAAAAAAAAAAAAAAAAAAAAAAAAAAAAAAAAAAAAAAAAAAAAAAAAAAAAAAAAAAAAAAAAAAAAAAAAAAAAAAAAAAAAAAAAAAAAAAAAAAAAAAAAAAAAAAAAAAAAAAAAAAAAAAAAAAAAAAAAAAAAAAAAAAAAAAAAAAAAAAAAAAAAAAAAAAAAAAAAAAAAAAAAAAAAAAAAAAAAAAAAAAAAAAAAAAAAAAAAAAAAAAAAAAAAAAAAAAAAAAAAAAAAAAAAAAAAAAAAAAAAAAAAAAAAAAAAAAAAAAAAAAAAAAAAAAAAAAAAAAAAAAAAAAAAAAAAAAAAAAAAAAAAAAAAAAAAAAAAAAAAAAAAAAAAAAAAAAAAAAAAAAAAAAAAAAAAAAAAAAAAAAAAAAAAAAAAAAAAAAAAAAAAAAAAAAAAAAAAAAAAAAAAAAAAAAAAAAAAAAAAAAAAAAAAAAAAAAAAAAAAAAAAAAAAAAAAAAAAAAAAAAAAAAAAAAAAAAAAAAAAAAAAAAAAAAAAAAAAAAAAAAAAAAAAAAAAAAAAAAAAAAAAAAAAAAAAAAAAAAAAAAAAAAAAAAAAAAAAAAAAAAAAAAAAAAAAAAAAAAAAAAAAAAAAAAAAAAAAAAAAAAAAAAAAAAAAAAAAAAAAAAAAAAAAAAAAAAAAAAAAAAAAAAAAAAAAAAAAAAAAAAAAAAAAAAAAAAAAAAAAAAAAAAAAAAAAAAAAAAAAAAAAAAAAAAAAAAAAAAAAAAAAAAAAAAAAAAAAAAAAAAAAAAAAAAAAAAAAAAAAAAAAAAAAAAAAAAAAAAAAAAAAAAAAAAAAAAAAAAAAAAAAAAAAAAAAAAAAAAAAAAAAAAAAAAAAAAAAAAAAAAAAAAAAAAAAAAAAAAAAAAAAAAAAAAAAAAAAAAAAAAAAAAAAAAAAAAAAAAAAAAAAAAAAAAAAAAAAAAAAAAAAAAAAAAAAAAAAAAAAAAAAAAAAAAAAAAAAAAAAAAAAAAAAAAAAAAAAAAAAAAAAAAAAAAAAAAAAAAAAAAAAAAAAAAAAAAAAAAAAAAAAAAAAAAAAAAAAAAAAAAAAAAAAAAAAAAAAAAAAAAAAAAAAAAAAAAAAAAAAAAAAAAAAAAAAAAAAAAAAAAAAAAAAAAAAAAAAAAAAAAAAAAAAAAAAAAAAAAAAAAAAAAAAAAAAAAAAAAAAAAAAAAAAAAAAAAAAAAAAAAAAAAAAAAAAAAAAAAAAAAAAAAAAAAAAAAAAAAAAAAAAAAAAAAAAAAAAAAAAAAAAAAAAAAAAAAAAAAAAAAAAAAAAAAAAAAAAAAAAAAAAAAAAAAAAAAAAAAAAAAAAAAAAAAAAAAAAAAAAAAAAAAAAAAAAAAAAAAAAAAAAAAAAAAAAAAAAAAAAAAAAAAAAAAAAAAAAAAAAAAAAAAAAAAAAAAAAAAAAAAAAAAAAAAAAAAAAAAAAAAAAAAAAAAAAAAAAAAAAAAAAAAAAAAAAAAAAAAAAAAAAAAAAAAAAAAAAAAAAAAAAAAAAAAAAAAAAAAAAAAAAAAAAAAAAAAAAAAAAAAAAAAAAAAAAAAAAAAAAAAAAAAAAAAAAAAAAAAAAAAAAAAAAAAAAAAAAAAAAAAAAAAAAAAAAAAAAAAAAAAAAAAAAAAAAAAAAAAAAAAAAAAAAAAAAAAAAAAAAAAAAAAPZYQAyh9eWC99L2xQmmJZnLnf7iewsFesiMX7qd5FrO6MRzc0j/Rh/s1Ux47b+/FLMOzm6UGUXT+AIaHI8TkZeXDbU=</c2pa:manifest></metadata><title>West Orange Branding Company — orange mark, white lettering</title><defs><clipPath id="round-opening"><path clip-rule="evenodd" d="M0 0 H1254 V1254 H0 Z M817 632 A55 55 0 1 0 707 632 A55 55 0 1 0 817 632 Z"/></clipPath></defs><g clip-path="url(#round-opening)"><g fill="none" stroke="#f44d12" stroke-width="36" stroke-linecap="round" stroke-linejoin="round"><path d="M338 427 C346 448 362 460 384 460 H473 L531 617 L616 483 L698.46112879 661.37365904 M680 600 L757 460 H870 C892 460 908 448 916 427"/></g><path fill="#f44d12" fill-rule="evenodd" d="M850 632 A88 88 0 1 0 674 632 A88 88 0 1 0 850 632 Z M817 632 A55 55 0 1 0 707 632 A55 55 0 1 0 817 632 Z"/><g fill="#f44d12"><rect x="185" y="555" width="207" height="35" rx="17.5"/><rect x="862" y="555" width="207" height="35" rx="17.5"/></g></g><path fill="#ffffff" fill-rule="evenodd" transform="translate(381.9 343) scale(0.42702703 0.29166667)" d="M0 0 H26 V4 L24 9 L38 75 L49 46 H62 L73 75 L87 9 L85 4 V0 H111 V4 L107 10 L88 120 H65 L55.5 92 L46 120 H23 L4 10 L0 4 Z"/><path fill="#ffffff" fill-rule="evenodd" transform="translate(446.5 343) scale(0.25200000 0.29166667)" d="M0 0 H100 V28 H35 V47 H80 V73 H35 V92 H100 V120 H0 V116 L5 110 V10 L0 4 Z"/><path fill="#ffffff" fill-rule="evenodd" transform="translate(489.6 343) scale(0.26600000 0.29166667)" d="M96 19 L76 39 C68 31 61 26 48 26 C37 26 31 30 31 36 C31 43 39 46 53 51 C80 60 100 68 100 87 C100 108 81 120 51 120 C29 120 12 111 0 98 L22 77 C31 88 41 94 53 94 C65 94 71 90 71 84 C71 77 63 74 48 69 C20 60 2 52 2 33 C2 13 22 0 49 0 C70 0 85 7 96 19 Z"/><path fill="#ffffff" fill-rule="evenodd" transform="translate(533.9 343) scale(0.26500000 0.29166667)" d="M0 0 H100 V28 H68 V110 L72 116 V120 H28 V116 L32 110 V28 H0 Z"/><path fill="#ffffff" fill-rule="evenodd" transform="translate(608.6 343) scale(0.31000000 0.29166667)" d="M50 0 C80 0 100 24 100 60 C100 96 80 120 50 120 C20 120 0 96 0 60 C0 24 20 0 50 0 Z M50 27 C37 27 28 40 28 60 C28 80 37 93 50 93 C63 93 72 80 72 60 C72 40 63 27 50 27 Z"/><path fill="#ffffff" fill-rule="evenodd" transform="translate(656.7 343) scale(0.28800000 0.29166667)" d="M0 0 H50 C79 0 94 19 94 40 C94 59 85 72 70 80 L93 110 L100 116 V120 H59 V116 L61 111 L44 86 H34 V110 L38 116 V120 H0 V116 L4 110 V10 L0 4 Z M34 26 V60 H46 C58 60 64 53 64 43 C64 32 58 26 46 26 Z"/><path fill="#ffffff" fill-rule="evenodd" transform="translate(702.5 343) scale(0.34000000 0.29166667)" d="M30 0 H70 V4 L68 10 L95 110 L100 116 V120 H64 V116 L67 109 L62 94 H37 L32 109 L35 116 V120 H0 V116 L5 110 L32 10 L30 4 Z M42 68 H57 L49.5 40 Z"/><path fill="#ffffff" fill-rule="evenodd" transform="translate(753.0 343) scale(0.31300000 0.29166667)" d="M0 0 H34 V4 L32 9 L69 66 V10 L65 4 V0 H100 V4 L96 10 V110 L100 116 V120 H66 V116 L68 111 L31 54 V110 L35 116 V120 H0 V116 L4 110 V10 L0 4 Z"/><path fill="#ffffff" fill-rule="evenodd" transform="translate(801.4 343) scale(0.27300000 0.29166667)" d="M98 0 V31 C86 27 79 26 68 26 C44 26 30 39 30 60 C30 82 43 95 63 95 H68 V83 H60 V59 H100 V114 C91 118 79 120 64 120 C23 120 0 98 0 60 C0 22 23 0 65 0 Z"/><path fill="#ffffff" fill-rule="evenodd" transform="translate(846.6 343) scale(0.25300000 0.29166667)" d="M0 0 H100 V28 H35 V47 H80 V73 H35 V92 H100 V120 H0 V116 L5 110 V10 L0 4 Z"/><path fill="#ffffff" fill-rule="evenodd" transform="translate(118.6 744) scale(0.93000000 0.92500000)" d="M0 0 H50 C80 0 94 16 94 35 C94 47 89 56 81 61 C93 67 100 76 100 91 C100 110 83 120 55 120 H0 V116 L4 110 V10 L0 4 Z M34 26 V47 H51 C60 47 66 43 66 36 C66 30 61 26 51 26 Z M34 73 V94 H54 C66 94 71 90 71 84 C71 77 65 73 54 73 Z"/><path fill="#ffffff" fill-rule="evenodd" transform="translate(257.8 744) scale(0.92700000 0.92500000)" d="M0 0 H50 C79 0 94 19 94 40 C94 59 85 72 70 80 L93 110 L100 116 V120 H59 V116 L61 111 L44 86 H34 V110 L38 116 V120 H0 V116 L4 110 V10 L0 4 Z M34 26 V60 H46 C58 60 64 53 64 43 C64 32 58 26 46 26 Z"/><path fill="#ffffff" fill-rule="evenodd" transform="translate(390.3 744) scale(1.10400000 0.92500000)" d="M30 0 H70 V4 L68 10 L95 110 L100 116 V120 H64 V116 L67 109 L62 94 H37 L32 109 L35 116 V120 H0 V116 L5 110 L32 10 L30 4 Z M42 68 H57 L49.5 40 Z"/><path fill="#ffffff" fill-rule="evenodd" transform="translate(542.2 744) scale(1.03800000 0.92500000)" d="M0 0 H34 V4 L32 9 L69 66 V10 L65 4 V0 H100 V4 L96 10 V110 L100 116 V120 H66 V116 L68 111 L31 54 V110 L35 116 V120 H0 V116 L4 110 V10 L0 4 Z"/><path fill="#ffffff" fill-rule="evenodd" transform="translate(691.4 744) scale(0.92000000 0.92500000)" d="M0 0 H50 C83 0 100 24 100 60 C100 96 83 120 50 120 H0 V116 L4 110 V10 L0 4 Z M34 26 V94 H46 C62 94 70 82 70 60 C70 38 62 26 46 26 Z"/><path fill="#ffffff" fill-rule="evenodd" transform="translate(826.6 744) scale(0.36000000 0.92500000)" d="M0 0 H100 V4 L89 10 V110 L100 116 V120 H0 V116 L11 110 V10 L0 4 Z"/><path fill="#ffffff" fill-rule="evenodd" transform="translate(905.7 744) scale(1.03700000 0.92500000)" d="M0 0 H34 V4 L32 9 L69 66 V10 L65 4 V0 H100 V4 L96 10 V110 L100 116 V120 H66 V116 L68 111 L31 54 V110 L35 116 V120 H0 V116 L4 110 V10 L0 4 Z"/><path fill="#ffffff" fill-rule="evenodd" transform="translate(1043.9 744) scale(0.89800000 0.92500000)" d="M98 0 V31 C86 27 79 26 68 26 C44 26 30 39 30 60 C30 82 43 95 63 95 H68 V83 H60 V59 H100 V114 C91 118 79 120 64 120 C23 120 0 98 0 60 C0 22 23 0 65 0 Z"/><path fill="#ffffff" fill-rule="evenodd" transform="translate(404.4 887) scale(0.35700000 0.37500000)" d="M100 0 V29 C88 26 79 26 68 26 C43 26 30 39 30 60 C30 81 43 94 68 94 C79 94 88 94 100 91 V120 C88 120 78 120 67 120 C25 120 0 98 0 60 C0 22 25 0 67 0 Z"/><path fill="#ffffff" fill-rule="evenodd" transform="translate(466.6 887) scale(0.40100000 0.37500000)" d="M50 0 C80 0 100 24 100 60 C100 96 80 120 50 120 C20 120 0 96 0 60 C0 24 20 0 50 0 Z M50 27 C37 27 28 40 28 60 C28 80 37 93 50 93 C63 93 72 80 72 60 C72 40 63 27 50 27 Z"/><path fill="#ffffff" fill-rule="evenodd" transform="translate(536.6 887) scale(0.48900000 0.37500000)" d="M0 0 H28 L50 35 L72 0 H100 V4 L96 10 V110 L100 116 V120 H70 V116 L74 110 V47 L50 66 L26 47 V110 L30 116 V120 H0 V116 L4 110 V10 L0 4 Z"/><path fill="#ffffff" fill-rule="evenodd" transform="translate(613.8 887) scale(0.34000000 0.37500000)" d="M0 0 H51 C80 0 100 19 100 43 C100 67 80 86 51 86 H35 V110 L39 116 V120 H0 V116 L4 110 V10 L0 4 Z M35 25 V61 H48 C61 61 69 54 69 43 C69 32 61 25 48 25 Z"/><path fill="#ffffff" fill-rule="evenodd" transform="translate(672 887) scale(0.42900000 0.37500000)" d="M30 0 H70 V4 L68 10 L95 110 L100 116 V120 H64 V116 L67 109 L62 94 H37 L32 109 L35 116 V120 H0 V116 L5 110 L32 10 L30 4 Z M42 68 H57 L49.5 40 Z"/><path fill="#ffffff" fill-rule="evenodd" transform="translate(741.7 887) scale(0.40400000 0.37500000)" d="M0 0 H34 V4 L32 9 L69 66 V10 L65 4 V0 H100 V4 L96 10 V110 L100 116 V120 H66 V116 L68 111 L31 54 V110 L35 116 V120 H0 V116 L4 110 V10 L0 4 Z"/><path fill="#ffffff" fill-rule="evenodd" transform="translate(808.4 887) scale(0.41800000 0.37500000)" d="M0 0 H36 V4 L34 9 L50 37 L66 9 L64 4 V0 H100 V4 L95 10 L65 65 V110 L69 116 V120 H31 V116 L35 110 V65 L5 10 L0 4 Z"/></svg>
